<svg xmlns="http://www.w3.org/2000/svg" width="55" height="46" viewBox="0 0 55 46"><g><g clip-path="url(#clip-BFE5DFCF-35B3-4511-9372-CC5DCDAE497D)"><path fill="#7d3192" d="M3.19 6.456h48.62c1.762 0 3.19-1.444 3.19-3.226C55 1.447 53.572 0 51.81 0H3.19C1.428 0 0 1.447 0 3.23c0 1.786 1.428 3.226 3.19 3.226m48.62 13.317H3.19c-1.762 0-3.19 1.446-3.19 3.225 0 1.79 1.428 3.23 3.19 3.23h48.62c1.762 0 3.19-1.444 3.19-3.23 0-1.779-1.428-3.225-3.19-3.225m0 19.767H3.19C1.428 39.54 0 40.992 0 42.77 0 44.556 1.428 46 3.19 46h48.62c1.762 0 3.19-1.444 3.19-3.23 0-1.778-1.428-3.23-3.19-3.23"/></g></g></svg>