<svg xmlns="http://www.w3.org/2000/svg" width="41" height="42" viewBox="0 0 41 42"><g><g clip-path="url(#clip-7219AC3A-700B-4D9C-A1FB-679FC05A71BF)"><path fill="#7d3192" d="M35.406 1.526l-34.38 34.38c-1.245 1.246-1.232 3.278.025 4.536 1.266 1.266 3.295 1.275 4.54.029l34.38-34.38c1.246-1.245 1.234-3.277-.029-4.54-1.258-1.257-3.29-1.27-4.536-.025"/></g><g clip-path="url(#clip-7219AC3A-700B-4D9C-A1FB-679FC05A71BF)"><path fill="#7d3192" d="M5.591 1.526l34.38 34.38c1.246 1.246 1.233 3.278-.025 4.536-1.265 1.266-3.294 1.275-4.54.029L1.026 6.091c-1.245-1.245-1.234-3.277.03-4.54C2.312.294 4.345.281 5.59 1.526"/></g></g></svg>