<svg xmlns="http://www.w3.org/2000/svg" width="94" height="24" viewBox="0 0 94 24"><defs><clipPath id="y5kva"><path d="M0 .19h16.761v23.335H0z"/></clipPath></defs><g><g><g><g/><g clip-path="url(#y5kva)"><path fill="#fff" d="M8.38.19c-1.749 0-3.823 1.672-5.533 4.484C1.064 7.586 0 11.19 0 14.321c0 4.582 2.587 9.204 8.38 9.204 5.79 0 8.381-4.622 8.381-9.204 0-3.13-1.063-6.735-2.837-9.647C12.198 1.862 10.124.19 8.381.19"/></g></g><g><path fill="#fff" d="M54 7.67h5.535V23h5.93V7.67H71V2H54z"/></g><g><path fill="#fff" d="M84.453 7.67H94V2h-9.546C75.683 2 71 6.221 71 12.5S75.683 23 84.454 23H94v-5.67h-9.547c-4.058 0-6.728-1.404-6.728-4.83 0-3.425 2.67-4.83 6.728-4.83"/></g><g><path fill="#fff" d="M40.86 2l-3.361 12.535L34.137 2H23v21h6.304V5.919L33.884 23h7.229l4.583-17.092V23H52V2z"/></g></g></g></svg>