<svg xmlns="http://www.w3.org/2000/svg" width="22" height="18" viewBox="0 0 22 18"><g><g><g><path fill="#fff" d="M16.929 5.924C16.724 2.621 14.125 0 10.96 0 7.794 0 5.196 2.622 4.991 5.927 2.161 6.305 0 8.863 0 11.932c0 3.342 2.562 6.06 5.712 6.06H14.4c.247 0 .447-.213.447-.475s-.2-.474-.447-.474H5.712c-2.656 0-4.817-2.293-4.817-5.111 0-2.712 2.001-4.95 4.555-5.096a.464.464 0 0 0 .424-.474v-.028C5.88 3.364 8.158.95 10.96.95c2.802 0 5.081 2.414 5.087 5.385v.026c0 .253.186.46.424.474 2.563.138 4.571 2.376 4.571 5.097 0 1.545-.649 2.99-1.78 3.967a.495.495 0 0 0-.064.668.43.43 0 0 0 .63.068c1.34-1.157 2.11-2.871 2.11-4.703 0-3.08-2.17-5.638-5.009-6.008"/></g></g><g><g><path fill="#fff" d="M10.56 8.665v5.798a.45.45 0 0 0 .443.455.449.449 0 0 0 .443-.455V8.665a.449.449 0 0 0-.443-.455.449.449 0 0 0-.443.455"/><path fill="none" stroke="#fff" stroke-miterlimit="50" stroke-width=".2" d="M10.56 8.665v5.798a.45.45 0 0 0 .443.455.449.449 0 0 0 .443-.455V8.665a.449.449 0 0 0-.443-.455.449.449 0 0 0-.443.455"/></g><g><path fill="#fff" d="M13.541 9.51a.437.437 0 0 0 .314-.133.463.463 0 0 0 0-.643l-2.534-2.6a.435.435 0 0 0-.627 0l-2.534 2.6a.463.463 0 0 0 0 .643.435.435 0 0 0 .626 0l2.221-2.279 2.221 2.28c.087.088.2.133.313.133"/><path fill="none" stroke="#fff" stroke-miterlimit="50" stroke-width=".2" d="M13.541 9.51a.437.437 0 0 0 .314-.133.463.463 0 0 0 0-.643l-2.534-2.6a.435.435 0 0 0-.627 0l-2.534 2.6a.463.463 0 0 0 0 .643.435.435 0 0 0 .626 0l2.221-2.279v0l2.221 2.28c.087.088.2.133.313.133"/></g></g></g></svg>